<?xml version="1.0" encoding="UTF-8"?>
<!DOCTYPE svg PUBLIC "-//W3C//DTD SVG 1.1//EN" "http://www.w3.org/Graphics/SVG/1.1/DTD/svg11.dtd">
<!-- Creator: CorelDRAW 2021 (64-Bit) -->
<svg xmlns="http://www.w3.org/2000/svg" xml:space="preserve" width="13.4321mm" height="17.6709mm" version="1.1" style="shape-rendering:geometricPrecision; text-rendering:geometricPrecision; image-rendering:optimizeQuality; fill-rule:evenodd; clip-rule:evenodd"
viewBox="0 0 122.16 160.71"
 xmlns:xlink="http://www.w3.org/1999/xlink"
 xmlns:xodm="http://www.corel.com/coreldraw/odm/2003">
 <defs>
  <style type="text/css">
   <![CDATA[
    .str0 {stroke:#2B2A29;stroke-width:3.64;stroke-linecap:round;stroke-linejoin:round;stroke-miterlimit:22.9256}
    .fil1 {fill:none}
    .fil0 {fill:none;fill-rule:nonzero}
   ]]>
  </style>
 </defs>
 <g id="Слой_x0020_1">
  <metadata id="CorelCorpID_0Corel-Layer"/>
  <g id="_2834271775568">
   <path class="fil0 str0" d="M6.71 24.92c1.19,9.21 4.1,17.2 8.12,24.41m4.58 7.27c7.14,10.16 16.36,18.85 25.57,27.54 9.98,9.42 19.97,18.84 27.63,30.07m4.49 7.32c3.95,7.23 6.89,15.24 8.32,24.42m0.87 8.54c0.07,1.44 0.11,2.9 0.11,4.4"/>
   <path class="fil0 str0" d="M51.69 80.21c-1.38,1.31 -2.77,2.62 -4.16,3.93 -4.98,4.7 -9.96,9.4 -14.66,14.33m-5.76 6.37c-6.38,7.48 -11.9,15.63 -15.68,25.14m-2.7 8.15c-1.68,6.29 -2.62,13.16 -2.62,20.76"/>
   <line class="fil1 str0" x1="10.41" y1="20.63" x2="46.87" y2= "20.63" />
   <line class="fil1 str0" x1="16.73" y1="36.82" x2="46.87" y2= "36.82" />
   <line class="fil1 str0" x1="21.32" y1="53.02" x2="46.87" y2= "53.02" />
   <line class="fil1 str0" x1="37.17" y1="69.22" x2="46.87" y2= "69.22" />
   <line class="fil1 str0" x1="24.93" y1="117.81" x2="70.65" y2= "117.81" />
   <line class="fil1 str0" x1="13.91" y1="150.21" x2="81.68" y2= "150.21" />
   <circle class="fil1 str0" cx="6.11" cy="20.63" r="4.3"/>
   <circle class="fil1 str0" cx="17.02" cy="53.02" r="4.3"/>
   <circle class="fil1 str0" cx="74.94" cy="117.81" r="4.3"/>
   <circle class="fil1 str0" cx="9.97" cy="134.01" r="4.3"/>
   <circle class="fil1 str0" cx="85.97" cy="150.21" r="4.3"/>
   <circle class="fil1 str0" cx="29.96" cy="101.61" r="4.3"/>
   <line class="fil1 str0" x1="14.27" y1="134.01" x2="71.66" y2= "134.01" />
   <path class="fil1 str0" d="M51.74 1.82l63.73 0c2.68,0 4.87,2.19 4.87,4.87l0 48.78c0,2.68 -2.19,4.87 -4.87,4.87l-63.73 0c-2.68,0 -4.87,-2.19 -4.87,-4.87l0 -48.78c0,-2.68 2.19,-4.87 4.87,-4.87z"/>
   <polygon class="fil1 str0" points="55.4,11.17 111.81,11.17 111.81,50.99 55.4,50.99 "/>
   <path class="fil1 str0" d="M50.19 65.19l66.83 0c1.82,0 3.32,1.5 3.32,3.32l0 8.34c0,1.82 -1.49,3.32 -3.32,3.32l-66.83 0c-1.82,0 -3.32,-1.49 -3.32,-3.32l0 -8.34c0,-1.82 1.49,-3.32 3.32,-3.32z"/>
   <path class="fil1 str0" d="M84.28 68.87c2.1,0 3.81,1.7 3.81,3.81 0,2.1 -1.7,3.81 -3.81,3.81 -2.1,0 -3.81,-1.7 -3.81,-3.81 0,-2.1 1.7,-3.81 3.81,-3.81z"/>
   <line class="fil1 str0" x1="94.16" y1="72.67" x2="112.98" y2= "72.67" />
   <line class="fil1 str0" x1="54.23" y1="72.67" x2="73.04" y2= "72.67" />
   <polyline class="fil1 str0" points="34.25,101.61 56.48,101.61 81.65,75.42 "/>
  </g>
 </g>
</svg>
